<svg xmlns="http://www.w3.org/2000/svg" xmlns:xlink="http://www.w3.org/1999/xlink" width="12" height="12" viewBox="0 0 12 12"><defs><clipPath id="a"><rect width="12" height="12"/></clipPath></defs><g clip-path="url(#a)"><path d="M7.5,10.95V7.5h3.45A1.051,1.051,0,0,0,12,6.45v-.9A1.051,1.051,0,0,0,10.95,4.5H7.5V1.05A1.051,1.051,0,0,0,6.45,0h-.9A1.051,1.051,0,0,0,4.5,1.05V4.5H1.05A1.051,1.051,0,0,0,0,5.55v.9A1.051,1.051,0,0,0,1.05,7.5H4.5v3.45A1.051,1.051,0,0,0,5.55,12h.9A1.051,1.051,0,0,0,7.5,10.95" fill-rule="evenodd"/></g></svg>