<svg xmlns="http://www.w3.org/2000/svg" xmlns:xlink="http://www.w3.org/1999/xlink" width="11.182" height="12" viewBox="0 0 11.182 12"><defs><clipPath id="a"><rect width="11.182" height="12"/></clipPath></defs><g clip-path="url(#a)"><path d="M1.909.265v.818h.818V.265A.266.266,0,0,0,2.463,0H2.174a.266.266,0,0,0-.265.265m4.364,0v.818h.818V.265A.266.266,0,0,0,6.826,0H6.537a.266.266,0,0,0-.265.265m2.182,0v.818h.818V.265A.266.266,0,0,0,9.008,0H8.719a.266.266,0,0,0-.265.265m-4.364.818.818.008V.265A.266.266,0,0,0,4.645,0H4.355a.266.266,0,0,0-.265.265Zm2.182.008H4.909V2.182a.244.244,0,0,1-.265.273H4.355a.244.244,0,0,1-.265-.273V1.091H2.727V2.182a.244.244,0,0,1-.265.273H2.174a.244.244,0,0,1-.265-.273V1.091H1.677A1.673,1.673,0,0,0,0,2.727v7.636A1.673,1.673,0,0,0,1.677,12H9.5a1.673,1.673,0,0,0,1.677-1.636V2.727A1.673,1.673,0,0,0,9.5,1.091H9.273V2.182a.244.244,0,0,1-.265.273H8.719a.244.244,0,0,1-.265-.273V1.091H7.091v1.1a.238.238,0,0,1-.265.265H6.537a.244.244,0,0,1-.265-.273ZM2.182,8.455H9a.26.26,0,0,1,.273.256v.562A.274.274,0,0,1,9,9.545H2.182a.274.274,0,0,1-.273-.273V8.711a.26.26,0,0,1,.273-.256m0-1.909H9a.252.252,0,0,1,.273.248v.57A.274.274,0,0,1,9,7.636H2.182a.274.274,0,0,1-.273-.273V6.81a.267.267,0,0,1,.273-.265m0-1.909H9a.252.252,0,0,1,.273.248v.57A.274.274,0,0,1,9,5.727H2.182a.274.274,0,0,1-.273-.273V4.892a.26.26,0,0,1,.273-.256" transform="translate(0)" fill-rule="evenodd"/></g></svg>