<svg xmlns="http://www.w3.org/2000/svg" xmlns:xlink="http://www.w3.org/1999/xlink" width="12" height="12" viewBox="0 0 12 12"><defs><clipPath id="a"><rect width="12" height="12"/></clipPath></defs><g clip-path="url(#a)"><path d="M0,6A6,6,0,1,0,11.32,3.223L6.906,9.157a1.385,1.385,0,0,1-1.934.286C4.72,9.257,1.986,6.569,1.986,6.569A1.293,1.293,0,0,1,2.177,4.8a1.244,1.244,0,0,1,1.737-.243L5.626,6.245,9.217,1.414a1.381,1.381,0,0,1,.289-.286A6,6,0,0,0,0,6" transform="translate(0 0)" fill-rule="evenodd"/></g></svg>