<svg xmlns="http://www.w3.org/2000/svg" xmlns:xlink="http://www.w3.org/1999/xlink" width="12" height="12" viewBox="0 0 12 12"><defs><clipPath id="a"><rect width="12" height="12"/></clipPath></defs><g clip-path="url(#a)"><path d="M11.693,9.572,8.121,6l3.572-3.572a1.051,1.051,0,0,0,0-1.485L11.057.307a1.052,1.052,0,0,0-1.485,0L6,3.879,2.429.307a1.052,1.052,0,0,0-1.485,0L.307.943a1.051,1.051,0,0,0,0,1.485L3.879,6,.307,9.572a1.051,1.051,0,0,0,0,1.485l.636.636a1.051,1.051,0,0,0,1.485,0L6,8.121l3.572,3.571a1.051,1.051,0,0,0,1.485,0l.636-.636a1.051,1.051,0,0,0,0-1.485" transform="translate(0 0)" fill-rule="evenodd"/></g></svg>