<svg xmlns="http://www.w3.org/2000/svg" xmlns:xlink="http://www.w3.org/1999/xlink" width="12" height="12" viewBox="0 0 12 12"><defs><clipPath id="a"><rect width="12" height="12" transform="translate(0 0.205)"/></clipPath></defs><g transform="translate(0 -0.205)"><g transform="translate(0 0)" clip-path="url(#a)"><path d="M5.277.043l-.4,1.351a4.552,4.552,0,0,0-1.34.555L2.3,1.277A5.9,5.9,0,0,0,1.277,2.3L1.95,3.538a4.552,4.552,0,0,0-.555,1.34l-1.351.4a5.966,5.966,0,0,0,0,1.446l1.351.4a4.552,4.552,0,0,0,.555,1.34L1.277,9.7A5.9,5.9,0,0,0,2.3,10.722l1.239-.673a4.552,4.552,0,0,0,1.34.555l.4,1.351a5.965,5.965,0,0,0,1.446,0l.4-1.351a4.552,4.552,0,0,0,1.34-.555l1.239.673A5.9,5.9,0,0,0,10.722,9.7l-.673-1.239a4.552,4.552,0,0,0,.555-1.34l1.351-.4a5.965,5.965,0,0,0,0-1.446l-1.351-.4a4.552,4.552,0,0,0-.555-1.34L10.722,2.3A5.9,5.9,0,0,0,9.7,1.277L8.461,1.95a4.552,4.552,0,0,0-1.34-.555L6.722.043a5.966,5.966,0,0,0-1.446,0M4.116,5.966a1.884,1.884,0,0,1,3.768,0A1.967,1.967,0,0,1,6,7.883,1.967,1.967,0,0,1,4.116,5.966" transform="translate(0 0)" fill-rule="evenodd"/></g></g></svg>