<svg xmlns="http://www.w3.org/2000/svg" xmlns:xlink="http://www.w3.org/1999/xlink" width="12" height="12" viewBox="0 0 12 12"><defs><clipPath id="a"><rect width="12" height="12"/></clipPath></defs><g clip-path="url(#a)"><path d="M1.451,0A1.449,1.449,0,0,0,0,1.449V6.837A1.449,1.449,0,0,0,1.451,8.286H2.857V4.72A1.864,1.864,0,0,1,4.723,2.857H8.286V1.449A1.449,1.449,0,0,0,6.834,0ZM5.166,3.714A1.449,1.449,0,0,0,3.714,5.163v5.389A1.449,1.449,0,0,0,5.166,12h5.386A1.449,1.449,0,0,0,12,10.551V5.163a1.449,1.449,0,0,0-1.449-1.449Z" fill-rule="evenodd"/></g></svg>