<svg xmlns="http://www.w3.org/2000/svg" xmlns:xlink="http://www.w3.org/1999/xlink" width="12" height="7.634" viewBox="0 0 12 7.634"><defs><clipPath id="a"><rect width="12" height="7.634"/></clipPath></defs><g clip-path="url(#a)"><path d="M56.382,116.189H62.14l.3-1.156H56.651l-.269,1.156" transform="translate(-53.207 -108.555)"/><path d="M44.522.417a2.239,2.239,0,0,0-1.9.723,7.08,7.08,0,0,0-.878,2.678H43.8L44.253,2l-.576-.323.931-.539L44.522.417" transform="translate(-39.389 -0.394)"/><path d="M2.858,0C1.937.1,1.131.206.776,1.017A24.135,24.135,0,0,0,0,3.43H2.109L2.6,1.567l-.674-.23L2.951.73,2.858,0"/><path d="M121.495,6.3a2.042,2.042,0,0,0,1.881-.722,7.467,7.467,0,0,0,.875-2.634h-2.059l-.479,1.821.617.289-.982.558.149.688" transform="translate(-114.512 -2.773)"/><path d="M163.131,6.268a2.043,2.043,0,0,0,1.946-.738,6.607,6.607,0,0,0,.834-2.609h-2.037l-.476,1.8.566.344-.867.5.035.7" transform="translate(-153.911 -2.757)"/></g></svg>