<svg xmlns="http://www.w3.org/2000/svg" xmlns:xlink="http://www.w3.org/1999/xlink" width="12" height="11.7" viewBox="0 0 12 11.7"><defs><clipPath id="a"><rect width="12" height="11.7"/></clipPath></defs><g clip-path="url(#a)"><path d="M.63,0A.63.63,0,0,0,0,.63v.54a.63.63,0,0,0,.63.63h.54a.63.63,0,0,0,.63-.63V.63A.63.63,0,0,0,1.17,0Zm3.3,0A.63.63,0,0,0,3.3.63v.54a.63.63,0,0,0,.63.63h7.44A.63.63,0,0,0,12,1.17V.63A.63.63,0,0,0,11.37,0ZM.63,3.3A.63.63,0,0,0,0,3.93v.54a.63.63,0,0,0,.63.63h.54a.63.63,0,0,0,.63-.63V3.93a.63.63,0,0,0-.63-.63Zm3.3,0a.63.63,0,0,0-.63.63v.54a.63.63,0,0,0,.63.63h7.44A.63.63,0,0,0,12,4.47V3.93a.63.63,0,0,0-.63-.63ZM.63,6.6A.63.63,0,0,0,0,7.23v.54a.63.63,0,0,0,.63.63h.54a.63.63,0,0,0,.63-.63V7.23a.63.63,0,0,0-.63-.63Zm3.3,0a.63.63,0,0,0-.63.63v.54a.63.63,0,0,0,.63.63h7.44A.63.63,0,0,0,12,7.77V7.23a.63.63,0,0,0-.63-.63ZM.63,9.9a.63.63,0,0,0-.63.63v.54a.63.63,0,0,0,.63.63h.54a.63.63,0,0,0,.63-.63v-.54a.63.63,0,0,0-.63-.63Zm3.3,0a.63.63,0,0,0-.63.63v.54a.63.63,0,0,0,.63.63h7.44a.63.63,0,0,0,.63-.63v-.54a.63.63,0,0,0-.63-.63Z" fill-rule="evenodd"/></g></svg>