<?xml version="1.0" encoding="UTF-8"?><svg id="Layer_2" xmlns="http://www.w3.org/2000/svg" viewBox="0 0 11.07 6.51"><defs><style>.cls-1{fill:#231f20;stroke-width:0px;}</style></defs><g id="Layer_1-2"><path class="cls-1" d="m6.58,1.63l.43-1.63h1.84c-.19.71-.42,1.42-.68,2.11-.31.71-1.02.8-1.82.89l-.08-.64.9-.53-.59-.2Z"/><path class="cls-1" d="m0,3c.19-.71.42-1.42.68-2.11C.99.18,1.69.09,2.5,0l.08.64-.9.53.59.2-.43,1.63H0Z"/><path class="cls-1" d="m2.89.89c.31-.71,1.02-.8,1.82-.89l.08.64-.9.53.59.2-.43,1.63h-1.84c.19-.71.42-1.42.68-2.11Z"/><polygon class="cls-1" points="8.26 6.51 2.51 6.51 2.78 5.36 8.56 5.36 8.26 6.51"/><path class="cls-1" d="m10.39,2.11c-.31.71-1.02.8-1.82.89l-.08-.64.9-.53-.59-.2.43-1.63h1.84c-.19.71-.42,1.42-.68,2.11Z"/></g></svg>