<svg xmlns="http://www.w3.org/2000/svg" xmlns:xlink="http://www.w3.org/1999/xlink" width="12.058" height="12" viewBox="0 0 12.058 12"><defs><clipPath id="a"><rect width="12.058" height="12"/></clipPath></defs><g transform="translate(0 0)" clip-path="url(#a)"><path d="M8.638.263a.938.938,0,0,0-1.3,0L7.024.57l2.7,2.6-.577.577L6.45,1.137l-.384.376L7.4,2.816l-.58.574L5.488,2.081,5.1,2.462,6.436,3.774l-.582.574L4.522,3.034l-.39.381L6.814,6.071l-.588.585L3.55,3.989l-.389.384L4.489,5.7,3.9,6.284,2.574,4.95l-.392.387L3.507,6.676l-.591.585L1.593,5.916,1.2,6.3,3.864,9.017l-.6.593L.605,6.888.284,7.2A.943.943,0,0,0,.262,8.532l3.079,3.18a.942.942,0,0,0,1.347.011L11.8,4.561a.909.909,0,0,0-.033-1.3Z" transform="translate(0 -0.001)" fill-rule="evenodd"/></g></svg>