<svg xmlns="http://www.w3.org/2000/svg" xmlns:xlink="http://www.w3.org/1999/xlink" width="12" height="12" viewBox="0 0 12 12"><defs><clipPath id="a"><rect width="12" height="12"/></clipPath></defs><g transform="translate(12) rotate(90)"><g clip-path="url(#a)"><path d="M1.05,0A1.051,1.051,0,0,0,0,1.05v9.9A1.051,1.051,0,0,0,1.05,12h.9A1.051,1.051,0,0,0,3,10.95V1.05A1.051,1.051,0,0,0,1.95,0Zm4.5,0A1.051,1.051,0,0,0,4.5,1.05v9.9A1.051,1.051,0,0,0,5.55,12h.9A1.051,1.051,0,0,0,7.5,10.95V1.05A1.051,1.051,0,0,0,6.45,0Zm4.5,0A1.051,1.051,0,0,0,9,1.05v9.9A1.051,1.051,0,0,0,10.05,12h.9A1.051,1.051,0,0,0,12,10.95V1.05A1.051,1.051,0,0,0,10.95,0Z" fill-rule="evenodd"/></g></g></svg>