<svg xmlns="http://www.w3.org/2000/svg" xmlns:xlink="http://www.w3.org/1999/xlink" width="11.133" height="12" viewBox="0 0 11.133 12"><defs><clipPath id="a"><rect width="11.133" height="12"/></clipPath></defs><g transform="translate(0 0)" clip-path="url(#a)"><path d="M1.67,0A1.575,1.575,0,0,0,0,1.419V8.044A1.575,1.575,0,0,0,1.67,9.463H5.013l0,2.018s-.033.8.71.415c.462-.546,1.486-1.606,2.293-2.433h1.45a1.575,1.575,0,0,0,1.67-1.419V1.419A1.575,1.575,0,0,0,9.463,0Zm.278,4.175H9.185a.279.279,0,0,1,.278.278V5.01a.279.279,0,0,1-.278.278H1.948A.279.279,0,0,1,1.67,5.01V4.453a.279.279,0,0,1,.278-.278M3.062,6.123h5.01A.279.279,0,0,1,8.35,6.4v.557a.279.279,0,0,1-.278.278H3.062a.279.279,0,0,1-.278-.278V6.4a.279.279,0,0,1,.278-.278m0-3.9h5.01A.279.279,0,0,1,8.35,2.5v.557a.279.279,0,0,1-.278.278H3.062a.279.279,0,0,1-.278-.278V2.5a.279.279,0,0,1,.278-.278" transform="translate(0 0)" fill-rule="evenodd"/></g></svg>