<?xml version="1.0" encoding="UTF-8"?>
<svg id="Layer_2" data-name="Layer 2" xmlns="http://www.w3.org/2000/svg" viewBox="0 0 73.19 73.19">
  <defs>
    <style>
      .cls-1 {
        fill: #231f20;
        stroke-width: 0px;
      }
    </style>
  </defs>
  <g id="Layer_1-2" data-name="Layer 1">
    <g>
      <path class="cls-1" d="M65.04,0H8.15C3.65,0,0,3.65,0,8.15v56.89c0,4.5,3.65,8.15,8.15,8.15h56.89c4.5,0,8.15-3.65,8.15-8.15V8.15c0-4.5-3.65-8.15-8.15-8.15ZM25.87,41.75h-9.34c-1.11,0-2.01.9-2.01,2.01v13.8c0,1.11-.9,2.01-2.01,2.01h-2.42c-1.11,0-2.01-.9-2.01-2.01V15.62c0-1.11.9-2.01,2.01-2.01h15.78c2.78,0,5.2.58,7.27,1.75,2.06,1.17,3.67,2.81,4.82,4.92,1.15,2.11,1.72,4.58,1.72,7.43s-.57,5.29-1.72,7.4c-1.15,2.11-2.76,3.74-4.82,4.9-2.07,1.16-4.49,1.74-7.27,1.74ZM65.11,42.98c0,3.32-.65,6.23-1.97,8.73-1.31,2.5-3.15,4.43-5.52,5.8-2.37,1.37-5.15,2.06-8.33,2.06s-5.96-.68-8.33-2.06c-2.37-1.37-4.22-3.3-5.52-5.8-.49-.92-.88-1.89-1.18-2.93-.28-.94.21-1.93,1.09-2.36.37-.18.73-.37,1.08-.56.32-.18.64-.37.94-.56,1.13-.72,2.63-.07,2.97,1.22.41,1.57,1.13,2.91,2.17,4.04,1.72,1.86,3.98,2.79,6.78,2.79s5.09-.92,6.8-2.79c1.7-1.85,2.55-4.31,2.55-7.37v-13.19c0-3.07-.85-5.53-2.55-7.38-1.71-1.84-3.98-2.78-6.8-2.78-.82,0-1.59.08-2.31.24-.95.21-1.88-.34-2.25-1.24-.26-.61-.54-1.21-.86-1.8,0,0,0-.02-.01-.02-.63-1.17-.04-2.65,1.25-2.95,1.31-.3,2.7-.45,4.18-.45,3.18,0,5.95.68,8.33,2.06,2.37,1.37,4.22,3.3,5.52,5.79,1.32,2.49,1.97,5.4,1.97,8.74v12.76Z"/>
      <path class="cls-1" d="M26.09,19.74h-9.56c-1.11,0-2.01.9-2.01,2.01v11.84c0,1.11.9,2.01,2.01,2.01h9.56c2.11,0,3.8-.73,5.07-2.18,1.27-1.45,1.91-3.36,1.91-5.72s-.64-4.33-1.91-5.78c-1.28-1.45-2.97-2.18-5.07-2.18Z"/>
    </g>
  </g>
</svg>