<svg xmlns="http://www.w3.org/2000/svg" xmlns:xlink="http://www.w3.org/1999/xlink" width="12" height="12" viewBox="0 0 12 12"><defs><clipPath id="a"><rect width="12" height="12" transform="translate(0 -0.487)"/></clipPath></defs><g transform="translate(0 0.487)"><g clip-path="url(#a)"><path d="M3.429,6A2.571,2.571,0,1,0,6,3.429,2.572,2.572,0,0,0,3.429,6M6,0a.573.573,0,0,0-.571.571V1.714a.571.571,0,1,0,1.143,0V.571A.573.573,0,0,0,6,0M6,9.714a.573.573,0,0,0-.571.571v1.143a.571.571,0,1,0,1.143,0V10.286A.573.573,0,0,0,6,9.714M0,6a.573.573,0,0,0,.571.571H1.714a.571.571,0,1,0,0-1.143H.571A.573.573,0,0,0,0,6M9.714,6a.573.573,0,0,0,.571.571h1.143a.571.571,0,1,0,0-1.143H10.286A.573.573,0,0,0,9.714,6M9,.8a.571.571,0,0,0-.78.211L7.649,2a.571.571,0,0,0,.989.571l.571-.989A.574.574,0,0,0,9,.8M4.143,9.217a.57.57,0,0,0-.78.209l-.571.989a.571.571,0,1,0,.989.571L4.352,10a.57.57,0,0,0-.209-.78M3,.8a.574.574,0,0,0-.209.783l.571.989A.571.571,0,0,0,4.352,2L3.78,1.014A.571.571,0,0,0,3,.8M7.857,9.217a.57.57,0,0,0-.209.78l.571.989a.571.571,0,1,0,.989-.571l-.571-.989a.57.57,0,0,0-.78-.209M.8,9a.574.574,0,0,0,.783.209l.989-.571A.571.571,0,1,0,2,7.649l-.989.571A.57.57,0,0,0,.8,9M9.217,4.143a.57.57,0,0,0,.78.209l.989-.571a.571.571,0,1,0-.571-.989l-.989.571a.57.57,0,0,0-.209.78M.8,3a.57.57,0,0,0,.211.78L2,4.351a.571.571,0,1,0,.571-.989l-.989-.571A.574.574,0,0,0,.8,3M9.217,7.857a.57.57,0,0,0,.209.78l.989.571a.571.571,0,1,0,.571-.989L10,7.649a.57.57,0,0,0-.78.209" transform="translate(0)" fill-rule="evenodd"/></g></g></svg>